<svg width="18" height="18" viewBox="0 0 18 18" fill="none" xmlns="http://www.w3.org/2000/svg">
<path d="M13.1797 12.0078L10.1719 9L13.1797 5.99219L12.0078 4.82031L9 7.82812L5.99219 4.82031L4.82031 5.99219L7.82812 9L4.82031 12.0078L5.99219 13.1797L9 10.1719L12.0078 13.1797L13.1797 12.0078ZM3.10156 3.14062C4.74219 1.5 6.70833 0.679688 9 0.679688C11.2917 0.679688 13.2448 1.5 14.8594 3.14062C16.5 4.75521 17.3203 6.70833 17.3203 9C17.3203 11.2917 16.5 13.2578 14.8594 14.8984C13.2448 16.513 11.2917 17.3203 9 17.3203C6.70833 17.3203 4.74219 16.513 3.10156 14.8984C1.48698 13.2578 0.679688 11.2917 0.679688 9C0.679688 6.70833 1.48698 4.75521 3.10156 3.14062Z" fill="#334155"/>
</svg>
